<svg xmlns="http://www.w3.org/2000/svg" xmlns:xlink="http://www.w3.org/1999/xlink" width="952" height="395.94"><rect width="952" height="395.94" rx="5" ry="5" class="a"/><svg y="0%" x="0%"><circle cx="20" cy="20" r="6" fill="#ff5f58"/><circle cx="40" cy="20" r="6" fill="#ffbd2e"/><circle cx="60" cy="20" r="6" fill="#18c132"/></svg><svg height="303.94" viewBox="0 0 88 30.394" width="880" x="31" xmlns="http://www.w3.org/2000/svg" xmlns:xlink="http://www.w3.org/1999/xlink" y="66"><style>@keyframes o{0%{transform:translateX(0)}.08%{transform:translateX(-176px)}26.75%{transform:translateX(-264px)}27%{transform:translateX(-352px)}27.25%{transform:translateX(-440px)}27.51%{transform:translateX(-528px)}27.76%{transform:translateX(-616px)}28.01%{transform:translateX(-704px)}28.26%{transform:translateX(-792px)}28.52%{transform:translateX(-880px)}31.47%{transform:translateX(-1056px)}31.53%{transform:translateX(-1144px)}31.59%{transform:translateX(-1320px)}43.36%{transform:translateX(-1408px)}43.61%{transform:translateX(-1496px)}43.86%{transform:translateX(-1584px)}44.11%{transform:translateX(-1672px)}44.37%{transform:translateX(-1760px)}44.62%{transform:translateX(-1848px)}47.57%{transform:translateX(-2024px)}47.77%{transform:translateX(-2112px)}47.87%{transform:translateX(-2200px)}61.64%{transform:translateX(-2288px)}68.65%{transform:translateX(-2376px)}68.78%{transform:translateX(-2552px)}82.7%{transform:translateX(-2640px)}82.95%{transform:translateX(-2728px)}83.2%{transform:translateX(-2816px)}83.46%{transform:translateX(-2904px)}83.71%{transform:translateX(-2992px)}83.96%{transform:translateX(-3080px)}84.22%{transform:translateX(-3168px)}84.47%{transform:translateX(-3256px)}84.72%{transform:translateX(-3344px)}84.98%{transform:translateX(-3432px)}85.23%{transform:translateX(-3520px)}85.48%{transform:translateX(-3608px)}85.74%{transform:translateX(-3696px)}85.99%{transform:translateX(-3784px)}86.24%{transform:translateX(-3872px)}89.2%{transform:translateX(-4224px)}to{transform:translateX(-4312px)}}.a{fill:#282d35}.f,.g{fill:#87af87;white-space:pre}.g{fill:#b9c0cb}.h{fill:#101315}.i,.j,.k,.q{fill:#cacccc;white-space:pre}.j,.k,.q{fill:#616161}.k,.q{fill:#494949}.q{fill:#798186}</style><g font-family="Monaco,Consolas,Menlo,'Bitstream Vera Sans Mono','Powerline Symbols',monospace" font-size="1.67"><defs><symbol id="1"><text y="1.67" class="f">❯</text></symbol><symbol id="2"><text y="1.67" class="f">❯</text><text x="2.004" y="1.67" class="g">c</text></symbol><symbol id="3"><text y="1.67" class="f">❯</text><text x="2.004" y="1.67" class="g">cl</text></symbol><symbol id="4"><text y="1.67" class="f">❯</text><text x="2.004" y="1.67" class="g">clp</text></symbol><symbol id="5"><text y="1.67" class="f">❯</text><text x="2.004" y="1.67" class="g">clp</text><text x="6.012" y="1.67" class="g">list</text></symbol><symbol id="6"><text x="2.004" y="1.67" class="g">default</text><text x="15.03" y="1.67" class="g">you@personal.com</text><text x="44.088" y="1.67" class="g">~/.claude</text></symbol><symbol id="7"><text x="2.004" y="1.67" class="g">work</text><text x="15.03" y="1.67" class="g">you@company.com</text><text x="44.088" y="1.67" class="g">~/.claude-accounts/work</text></symbol><symbol id="8"><text y="1.67" class="f">❯</text><text x="2.004" y="1.67" class="g">cla</text></symbol><symbol id="9"><text y="1.67" class="f">❯</text><text x="2.004" y="1.67" class="g">clau</text></symbol><symbol id="10"><text y="1.67" class="f">❯</text><text x="2.004" y="1.67" class="g">claud</text></symbol><symbol id="11"><text y="1.67" class="f">❯</text><text x="2.004" y="1.67" class="g">claude</text></symbol><symbol id="12"><path class="h" d="M0 0h14v2.171H0z"/><text y="1.67" class="i">Claude account</text></symbol><symbol id="13"><text y="1.67" class="j">←↓↑→</text><text x="5.01" y="1.67" class="k">navigate</text><text x="14.028" y="1.67" style="white-space:pre" fill="#3c3c3c">•</text><text x="16.032" y="1.67" class="j">enter</text><text x="22.044" y="1.67" class="k">submit</text></symbol><symbol id="14"><text x="2.004" y="1.67" class="g">starting</text><text x="11.022" y="1.67" class="g">Claude</text><text x="18.036" y="1.67" class="g">Code</text><text x="23.046" y="1.67" class="g">with</text><text x="28.056" y="1.67" class="g">CLAUDE_CONFIG_DIR=~/.claude-accounts/work</text></symbol><symbol id="15"><text y="1.67" class="f">❯</text><text x="2.004" y="1.67" class="g">claude</text><text x="9.018" y="1.67" class="g">@default</text></symbol><symbol id="16"><text x="2.004" y="1.67" class="g">starting</text><text x="11.022" y="1.67" class="g">Claude</text><text x="18.036" y="1.67" class="g">Code</text><text x="23.046" y="1.67" class="g">with</text><text x="28.056" y="1.67" class="g">CLAUDE_CONFIG_DIR=~/.claude</text></symbol><symbol id="a"><path fill="transparent" d="M0 0h88v15H0z"/></symbol><symbol id="b"><path fill="#6f7683" d="M0 0h1.102v2.171H0z"/></symbol></defs><path class="a" d="M0 0h88v30.394H0z"/><g style="animation-duration:18.525657s;animation-iteration-count:infinite;animation-name:o;animation-timing-function:steps(1,end)"><svg width="4400"><svg><use xlink:href="#a"/><use xlink:href="#b" x="-.004"/></svg><svg x="88"><use xlink:href="#a"/><use xlink:href="#b" x="-.004"/></svg><svg x="176"><use xlink:href="#a"/><use xlink:href="#b" x="1.996"/><use xlink:href="#1"/></svg><svg x="264"><use xlink:href="#a"/><use xlink:href="#b" x="2.996"/><use xlink:href="#2"/></svg><svg x="352"><use xlink:href="#a"/><use xlink:href="#b" x="3.996"/><use xlink:href="#3"/></svg><svg x="440"><use xlink:href="#a"/><use xlink:href="#b" x="4.996"/><use xlink:href="#4"/></svg><svg x="528"><use xlink:href="#a"/><use xlink:href="#b" x="5.996"/><use xlink:href="#4"/></svg><svg x="616"><use xlink:href="#a"/><use xlink:href="#b" x="6.996"/><text y="1.67" class="f">❯</text><text x="2.004" y="1.67" class="g">clp</text><text x="6.012" y="1.67" class="g">l</text></svg><svg x="704"><use xlink:href="#a"/><use xlink:href="#b" x="7.996"/><text y="1.67" class="f">❯</text><text x="2.004" y="1.67" class="g">clp</text><text x="6.012" y="1.67" class="g">li</text></svg><svg x="792"><use xlink:href="#a"/><use xlink:href="#b" x="8.996"/><text y="1.67" class="f">❯</text><text x="2.004" y="1.67" class="g">clp</text><text x="6.012" y="1.67" class="g">lis</text></svg><svg x="880"><use xlink:href="#a"/><use xlink:href="#b" x="9.996"/><use xlink:href="#5"/></svg><svg x="968"><use xlink:href="#a"/><use xlink:href="#b" x="-.004" y="2.146"/><use xlink:href="#5"/></svg><svg x="1056"><use xlink:href="#a"/><use xlink:href="#b" x="-.004" y="2.146"/><use xlink:href="#5"/></svg><svg x="1144"><use xlink:href="#a"/><use xlink:href="#b" x="-.004" y="4.317"/><use xlink:href="#5"/><use xlink:href="#6" y="2.171"/></svg><svg x="1232"><use xlink:href="#a"/><use xlink:href="#b" x="-.004" y="6.488"/><use xlink:href="#5"/><use xlink:href="#6" y="2.171"/><use xlink:href="#7" y="4.342"/></svg><svg x="1320"><use xlink:href="#a"/><use xlink:href="#b" x="1.996" y="6.488"/><use xlink:href="#5"/><use xlink:href="#6" y="2.171"/><use xlink:href="#7" y="4.342"/><use xlink:href="#1" y="6.513"/></svg><svg x="1408"><use xlink:href="#a"/><use xlink:href="#b" x="2.996" y="6.488"/><use xlink:href="#5"/><use xlink:href="#6" y="2.171"/><use xlink:href="#7" y="4.342"/><use xlink:href="#2" y="6.513"/></svg><svg x="1496"><use xlink:href="#a"/><use xlink:href="#b" x="3.996" y="6.488"/><use xlink:href="#5"/><use xlink:href="#6" y="2.171"/><use xlink:href="#7" y="4.342"/><use xlink:href="#3" y="6.513"/></svg><svg x="1584"><use xlink:href="#a"/><use xlink:href="#b" x="4.996" y="6.488"/><use xlink:href="#5"/><use xlink:href="#6" y="2.171"/><use xlink:href="#7" y="4.342"/><use xlink:href="#8" y="6.513"/></svg><svg x="1672"><use xlink:href="#a"/><use xlink:href="#b" x="5.996" y="6.488"/><use xlink:href="#5"/><use xlink:href="#6" y="2.171"/><use xlink:href="#7" y="4.342"/><use xlink:href="#9" y="6.513"/></svg><svg x="1760"><use xlink:href="#a"/><use xlink:href="#b" x="6.996" y="6.488"/><use xlink:href="#5"/><use xlink:href="#6" y="2.171"/><use xlink:href="#7" y="4.342"/><use xlink:href="#10" y="6.513"/></svg><svg x="1848"><use xlink:href="#a"/><use xlink:href="#b" x="7.996" y="6.488"/><use xlink:href="#5"/><use xlink:href="#6" y="2.171"/><use xlink:href="#7" y="4.342"/><use xlink:href="#11" y="6.513"/></svg><svg x="1936"><use xlink:href="#a"/><use xlink:href="#b" x="-.004" y="8.659"/><use xlink:href="#5"/><use xlink:href="#6" y="2.171"/><use xlink:href="#7" y="4.342"/><use xlink:href="#11" y="6.513"/></svg><svg x="2024"><use xlink:href="#a"/><use xlink:href="#b" x="-.004" y="8.659"/><use xlink:href="#5"/><use xlink:href="#6" y="2.171"/><use xlink:href="#7" y="4.342"/><use xlink:href="#11" y="6.513"/></svg><svg x="2112"><use xlink:href="#a"/><use xlink:href="#5"/><use xlink:href="#6" y="2.171"/><use xlink:href="#7" y="4.342"/><use xlink:href="#11" y="6.513"/></svg><svg x="2200"><use xlink:href="#a"/><use xlink:href="#5"/><use xlink:href="#6" y="2.171"/><use xlink:href="#7" y="4.342"/><use xlink:href="#11" y="6.513"/><use xlink:href="#12" y="8.684"/><path class="h" d="M0 10.855h28v2.171H0z"/><text y="12.525" class="q">&gt; default you@personal.com</text><path class="h" d="M2.004 13.026h22v2.171h-22z"/><text x="2.004" y="14.696" class="i">work you@company.com</text><use xlink:href="#13" y="19.539"/></svg><svg x="2288"><use xlink:href="#a"/><use xlink:href="#5"/><use xlink:href="#6" y="2.171"/><use xlink:href="#7" y="4.342"/><use xlink:href="#11" y="6.513"/><use xlink:href="#12" y="8.684"/><path class="h" d="M2.004 10.855h26v2.171h-26z"/><text x="2.004" y="12.525" class="i">default you@personal.com</text><path class="h" d="M0 13.026h24v2.171H0z"/><text y="14.696" class="q">&gt; work you@company.com</text><use xlink:href="#13" y="19.539"/></svg><svg x="2376"><use xlink:href="#a"/><use xlink:href="#b" x="-.004" y="8.659"/><use xlink:href="#5"/><use xlink:href="#6" y="2.171"/><use xlink:href="#7" y="4.342"/><use xlink:href="#11" y="6.513"/></svg><svg x="2464"><use xlink:href="#a"/><use xlink:href="#b" x="-.004" y="10.83"/><use xlink:href="#5"/><use xlink:href="#6" y="2.171"/><use xlink:href="#7" y="4.342"/><use xlink:href="#11" y="6.513"/><use xlink:href="#14" y="8.684"/></svg><svg x="2552"><use xlink:href="#a"/><use xlink:href="#b" x="1.996" y="10.83"/><use xlink:href="#5"/><use xlink:href="#6" y="2.171"/><use xlink:href="#7" y="4.342"/><use xlink:href="#11" y="6.513"/><use xlink:href="#14" y="8.684"/><use xlink:href="#1" y="10.855"/></svg><svg x="2640"><use xlink:href="#a"/><use xlink:href="#b" x="2.996" y="10.83"/><use xlink:href="#5"/><use xlink:href="#6" y="2.171"/><use xlink:href="#7" y="4.342"/><use xlink:href="#11" y="6.513"/><use xlink:href="#14" y="8.684"/><use xlink:href="#2" y="10.855"/></svg><svg x="2728"><use xlink:href="#a"/><use xlink:href="#b" x="3.996" y="10.83"/><use xlink:href="#5"/><use xlink:href="#6" y="2.171"/><use xlink:href="#7" y="4.342"/><use xlink:href="#11" y="6.513"/><use xlink:href="#14" y="8.684"/><use xlink:href="#3" y="10.855"/></svg><svg x="2816"><use xlink:href="#a"/><use xlink:href="#b" x="4.996" y="10.83"/><use xlink:href="#5"/><use xlink:href="#6" y="2.171"/><use xlink:href="#7" y="4.342"/><use xlink:href="#11" y="6.513"/><use xlink:href="#14" y="8.684"/><use xlink:href="#8" y="10.855"/></svg><svg x="2904"><use xlink:href="#a"/><use xlink:href="#b" x="5.996" y="10.83"/><use xlink:href="#5"/><use xlink:href="#6" y="2.171"/><use xlink:href="#7" y="4.342"/><use xlink:href="#11" y="6.513"/><use xlink:href="#14" y="8.684"/><use xlink:href="#9" y="10.855"/></svg><svg x="2992"><use xlink:href="#a"/><use xlink:href="#b" x="6.996" y="10.83"/><use xlink:href="#5"/><use xlink:href="#6" y="2.171"/><use xlink:href="#7" y="4.342"/><use xlink:href="#11" y="6.513"/><use xlink:href="#14" y="8.684"/><use xlink:href="#10" y="10.855"/></svg><svg x="3080"><use xlink:href="#a"/><use xlink:href="#b" x="7.996" y="10.83"/><use xlink:href="#5"/><use xlink:href="#6" y="2.171"/><use xlink:href="#7" y="4.342"/><use xlink:href="#11" y="6.513"/><use xlink:href="#14" y="8.684"/><use xlink:href="#11" y="10.855"/></svg><svg x="3168"><use xlink:href="#a"/><use xlink:href="#b" x="8.996" y="10.83"/><use xlink:href="#5"/><use xlink:href="#6" y="2.171"/><use xlink:href="#7" y="4.342"/><use xlink:href="#11" y="6.513"/><use xlink:href="#14" y="8.684"/><use xlink:href="#11" y="10.855"/></svg><svg x="3256"><use xlink:href="#a"/><use xlink:href="#b" x="9.996" y="10.83"/><use xlink:href="#5"/><use xlink:href="#6" y="2.171"/><use xlink:href="#7" y="4.342"/><use xlink:href="#11" y="6.513"/><use xlink:href="#14" y="8.684"/><text y="12.525" class="f">❯</text><text x="2.004" y="12.525" class="g">claude</text><text x="9.018" y="12.525" class="g">@</text></svg><svg x="3344"><use xlink:href="#a"/><use xlink:href="#b" x="10.996" y="10.83"/><use xlink:href="#5"/><use xlink:href="#6" y="2.171"/><use xlink:href="#7" y="4.342"/><use xlink:href="#11" y="6.513"/><use xlink:href="#14" y="8.684"/><text y="12.525" class="f">❯</text><text x="2.004" y="12.525" class="g">claude</text><text x="9.018" y="12.525" class="g">@d</text></svg><svg x="3432"><use xlink:href="#a"/><use xlink:href="#b" x="11.996" y="10.83"/><use xlink:href="#5"/><use xlink:href="#6" y="2.171"/><use xlink:href="#7" y="4.342"/><use xlink:href="#11" y="6.513"/><use xlink:href="#14" y="8.684"/><text y="12.525" class="f">❯</text><text x="2.004" y="12.525" class="g">claude</text><text x="9.018" y="12.525" class="g">@de</text></svg><svg x="3520"><use xlink:href="#a"/><use xlink:href="#b" x="12.996" y="10.83"/><use xlink:href="#5"/><use xlink:href="#6" y="2.171"/><use xlink:href="#7" y="4.342"/><use xlink:href="#11" y="6.513"/><use xlink:href="#14" y="8.684"/><text y="12.525" class="f">❯</text><text x="2.004" y="12.525" class="g">claude</text><text x="9.018" y="12.525" class="g">@def</text></svg><svg x="3608"><use xlink:href="#a"/><use xlink:href="#b" x="13.996" y="10.83"/><use xlink:href="#5"/><use xlink:href="#6" y="2.171"/><use xlink:href="#7" y="4.342"/><use xlink:href="#11" y="6.513"/><use xlink:href="#14" y="8.684"/><text y="12.525" class="f">❯</text><text x="2.004" y="12.525" class="g">claude</text><text x="9.018" y="12.525" class="g">@defa</text></svg><svg x="3696"><use xlink:href="#a"/><use xlink:href="#b" x="14.996" y="10.83"/><use xlink:href="#5"/><use xlink:href="#6" y="2.171"/><use xlink:href="#7" y="4.342"/><use xlink:href="#11" y="6.513"/><use xlink:href="#14" y="8.684"/><text y="12.525" class="f">❯</text><text x="2.004" y="12.525" class="g">claude</text><text x="9.018" y="12.525" class="g">@defau</text></svg><svg x="3784"><use xlink:href="#a"/><use xlink:href="#b" x="15.996" y="10.83"/><use xlink:href="#5"/><use xlink:href="#6" y="2.171"/><use xlink:href="#7" y="4.342"/><use xlink:href="#11" y="6.513"/><use xlink:href="#14" y="8.684"/><text y="12.525" class="f">❯</text><text x="2.004" y="12.525" class="g">claude</text><text x="9.018" y="12.525" class="g">@defaul</text></svg><svg x="3872"><use xlink:href="#a"/><use xlink:href="#b" x="16.996" y="10.83"/><use xlink:href="#5"/><use xlink:href="#6" y="2.171"/><use xlink:href="#7" y="4.342"/><use xlink:href="#11" y="6.513"/><use xlink:href="#14" y="8.684"/><use xlink:href="#15" y="10.855"/></svg><svg x="3960"><use xlink:href="#a"/><use xlink:href="#b" x="-.004" y="13.001"/><use xlink:href="#5"/><use xlink:href="#6" y="2.171"/><use xlink:href="#7" y="4.342"/><use xlink:href="#11" y="6.513"/><use xlink:href="#14" y="8.684"/><use xlink:href="#15" y="10.855"/></svg><svg x="4048"><use xlink:href="#a"/><use xlink:href="#b" x="-.004" y="15.172"/><use xlink:href="#5"/><use xlink:href="#6" y="2.171"/><use xlink:href="#7" y="4.342"/><use xlink:href="#11" y="6.513"/><use xlink:href="#14" y="8.684"/><use xlink:href="#15" y="10.855"/><use xlink:href="#16" y="13.026"/></svg><svg x="4136"><use xlink:href="#a"/><use xlink:href="#b" x="-.004" y="15.172"/><use xlink:href="#5"/><use xlink:href="#6" y="2.171"/><use xlink:href="#7" y="4.342"/><use xlink:href="#11" y="6.513"/><use xlink:href="#14" y="8.684"/><use xlink:href="#15" y="10.855"/><use xlink:href="#16" y="13.026"/></svg><svg x="4224"><use xlink:href="#a"/><use xlink:href="#b" x="1.996" y="15.172"/><use xlink:href="#5"/><use xlink:href="#6" y="2.171"/><use xlink:href="#7" y="4.342"/><use xlink:href="#11" y="6.513"/><use xlink:href="#14" y="8.684"/><use xlink:href="#15" y="10.855"/><use xlink:href="#16" y="13.026"/><use xlink:href="#1" y="15.197"/></svg><svg x="4312"><use xlink:href="#a"/><use xlink:href="#b" x="1.996" y="15.172"/><use xlink:href="#5"/><use xlink:href="#6" y="2.171"/><use xlink:href="#7" y="4.342"/><use xlink:href="#11" y="6.513"/><use xlink:href="#14" y="8.684"/><use xlink:href="#15" y="10.855"/><use xlink:href="#16" y="13.026"/><use xlink:href="#1" y="15.197"/></svg></svg></g></g></svg></svg>